<svg xmlns="http://www.w3.org/2000/svg" width="1400" height="600" viewBox="0 0 1400 600">
  <defs>
    <linearGradient id="bg" x1="0%" y1="0%" x2="100%" y2="100%">
      <stop offset="0%" style="stop-color:#f0fdfa"/>
      <stop offset="100%" style="stop-color:#ccfbf1"/>
    </linearGradient>
  </defs>
  <rect width="1400" height="600" fill="url(#bg)"/>
  <g transform="translate(700,240)" fill="#99f6e4">
    <path d="M-30-80c0-44,20-70,50-70s50,26,50,70c0,50-20,100-50,120C-10,260-30,210-30,160Z" opacity=".3"/>
    <path d="M30-80c0-44-20-70-50-70S-70-106-70-80c0,50,20,100,50,120C10,260,30,210,30,160Z" opacity=".3" transform="scale(-1,1)"/>
  </g>
  <text x="700" y="340" text-anchor="middle" font-family="Inter,system-ui,sans-serif" font-size="26" font-weight="600" fill="#0d9488">📷  Foto Hero — Dentista con paciente</text>
  <text x="700" y="380" text-anchor="middle" font-family="Inter,system-ui,sans-serif" font-size="16" fill="#64748b">Reemplazar con imagen real: /assets/img/hero-dental.jpg  (1400 × 600 px recomendado)</text>
</svg>
